<svg xmlns="http://www.w3.org/2000/svg" version="1.1" xmlns:xlink="http://www.w3.org/1999/xlink" xmlns:svgjs="http://svgjs.com/svgjs" width="20" height="20"><svg xmlns="http://www.w3.org/2000/svg" viewBox="0 0 20 20"><defs><style>.a{fill:#fc0;}</style></defs><rect class="a" width="20" height="20" rx="4"></rect><path d="M11.875,11.25c-1.687,0-5,.813-5,2.5V15h10V13.75c0-1.687-3.312-2.5-5-2.5m0-1.25a2.5,2.5,0,1,0-2.5-2.5,2.5,2.5,0,0,0,2.5,2.5m-6.25,1.875-.375-.313C4,10.375,3.125,9.625,3.125,8.687A1.387,1.387,0,0,1,4.5,7.312a1.464,1.464,0,0,1,1.125.5,1.464,1.464,0,0,1,1.125-.5A1.348,1.348,0,0,1,8.125,8.687c0,.938-.875,1.688-2.125,2.875Z"></path></svg><style>@media (prefers-color-scheme: light) { :root { filter: none; } }
@media (prefers-color-scheme: dark) { :root { filter: contrast(0.8333333333333334) brightness(1.7); } }
</style></svg>