<?xml version="1.0" standalone="no"?>
<!DOCTYPE svg PUBLIC "-//W3C//DTD SVG 20010904//EN"
 "http://www.w3.org/TR/2001/REC-SVG-20010904/DTD/svg10.dtd">
<svg version="1.0" xmlns="http://www.w3.org/2000/svg"
 width="700.000000pt" height="700.000000pt" viewBox="0 0 700.000000 700.000000"
 preserveAspectRatio="xMidYMid meet">
<metadata>
Created by potrace 1.14, written by Peter Selinger 2001-2017
</metadata>
<g transform="translate(0.000000,700.000000) scale(0.100000,-0.100000)"
fill="#000000" stroke="none">
<path d="M4259 6029 c-139 -24 -253 -60 -375 -121 -418 -207 -690 -636 -698
-1103 -2 -107 9 -239 27 -315 83 -347 292 -632 596 -812 193 -114 380 -167
611 -173 362 -10 681 117 938 374 126 126 241 308 297 471 1 3 5 12 8 20 15
35 47 181 55 252 10 78 8 276 -2 338 -49 275 -162 504 -345 693 -291 302 -711
444 -1112 376z"/>
<path d="M618 4865 c-2 -2 -20 -6 -41 -9 -21 -3 -65 -15 -100 -27 -212 -72
-386 -256 -452 -479 -20 -68 -27 -223 -13 -310 29 -182 151 -401 357 -635 107
-122 646 -643 791 -765 41 -35 83 -70 92 -78 19 -16 33 -10 89 40 15 13 46 39
69 58 70 58 376 347 549 520 369 368 522 595 570 844 41 209 2 394 -113 556
-98 136 -225 224 -388 267 -68 18 -238 23 -323 10 -126 -20 -272 -92 -379
-188 l-59 -53 -21 25 c-78 91 -229 173 -391 214 -29 7 -231 16 -237 10z"/>
<path d="M4387 2864 c-1 -1 -58 -5 -127 -9 -132 -7 -169 -10 -237 -19 -24 -3
-62 -8 -85 -11 -42 -5 -135 -20 -193 -30 -16 -3 -39 -8 -50 -10 -75 -13 -228
-46 -234 -50 -4 -2 -23 -7 -42 -10 -57 -10 -267 -71 -391 -114 -538 -186 -911
-445 -1047 -726 -64 -133 -65 -135 -69 -550 l-3 -380 2546 -1 2545 0 0 351
c-1 398 -6 441 -69 570 -96 199 -278 368 -571 530 -383 211 -958 374 -1550
440 -95 10 -416 25 -423 19z"/>
</g>
</svg>
